<?xml version="1.0" standalone="no"?>
<!DOCTYPE svg PUBLIC "-//W3C//DTD SVG 20010904//EN"
 "http://www.w3.org/TR/2001/REC-SVG-20010904/DTD/svg10.dtd">
<svg version="1.0" xmlns="http://www.w3.org/2000/svg"
 width="205.000000pt" height="256.000000pt" viewBox="0 0 205.000000 256.000000"
 preserveAspectRatio="xMidYMid meet">
<metadata>
Created by potrace 1.14, written by Peter Selinger 2001-2017
</metadata>
<g transform="translate(0.000000,256.000000) scale(0.100000,-0.100000)"
fill="#000000" stroke="none">
<path d="M473 1959 c-51 -15 -93 -64 -93 -108 0 -47 18 -72 73 -100 25 -13 50
-35 57 -49 29 -64 20 -747 -11 -816 -8 -17 -31 -36 -59 -50 -61 -28 -88 -80
-71 -136 28 -95 108 -115 431 -107 248 6 318 19 363 67 59 65 22 160 -70 176
-39 8 -50 15 -62 38 -15 32 -28 237 -17 280 6 23 11 26 50 26 65 0 91 -26 105
-101 15 -85 41 -113 99 -106 81 9 123 79 142 238 22 186 -16 345 -92 382 -65
32 -129 -7 -150 -90 -15 -61 -44 -79 -106 -67 l-47 9 2 90 c1 50 8 108 15 130
l13 40 130 -2 c159 -2 179 -9 264 -97 34 -37 71 -71 81 -76 52 -28 131 7 157
68 38 90 -11 270 -93 341 l-35 31 -122 -7 c-152 -10 -584 -10 -777 -1 -86 4
-158 3 -177 -3z m484 -25 c240 -5 387 -3 464 5 130 14 141 10 190 -67 77 -122
77 -277 -1 -317 -48 -25 -82 -12 -142 54 -98 106 -133 119 -319 122 -79 2
-104 -1 -116 -13 -38 -38 -59 -262 -28 -288 22 -18 100 -24 134 -10 23 9 34
23 47 64 21 66 49 96 89 96 84 0 110 -68 110 -280 -1 -138 -3 -162 -24 -213
-16 -41 -32 -64 -55 -78 -63 -39 -102 -14 -116 76 -13 82 -48 115 -123 115
-29 0 -58 -5 -65 -12 -15 -15 -16 -237 -1 -293 15 -55 34 -73 85 -81 105 -15
112 -131 12 -168 -95 -34 -416 -48 -573 -25 -94 14 -135 46 -135 104 0 51 14
71 64 94 25 10 52 30 61 44 24 38 37 254 33 561 -3 299 -5 306 -82 347 -26 15
-52 33 -57 40 -41 65 52 145 156 133 22 -2 198 -7 392 -10z"/>
</g>
</svg>
